<svg width="50" height="56" viewBox="0 0 50 56" fill="none" xmlns="http://www.w3.org/2000/svg">
<g clip-path="url(#clip0)">
<path d="M25.0112 15.4218C17.913 15.4218 12.1875 21.0328 12.1875 27.989C12.1875 34.9453 17.913 40.5562 25.0112 40.5562C32.1094 40.5562 37.8348 34.9453 37.8348 27.989C37.8348 21.0328 32.1094 15.4218 25.0112 15.4218ZM25.0112 36.1593C20.4241 36.1593 16.6741 32.4953 16.6741 27.989C16.6741 23.4828 20.413 19.8187 25.0112 19.8187C29.6094 19.8187 33.3482 23.4828 33.3482 27.989C33.3482 32.4953 29.5982 36.1593 25.0112 36.1593ZM41.3504 14.9078C41.3504 16.5375 40.0112 17.839 38.3594 17.839C36.6964 17.839 35.3683 16.5265 35.3683 14.9078C35.3683 13.289 36.7076 11.9765 38.3594 11.9765C40.0112 11.9765 41.3504 13.289 41.3504 14.9078ZM49.8437 17.8828C49.654 13.9562 48.7388 10.4781 45.8036 7.61247C42.8795 4.74685 39.3304 3.84998 35.3237 3.6531C31.1942 3.42341 18.817 3.42341 14.6875 3.6531C10.692 3.83904 7.14286 4.73591 4.2076 7.60154C1.27233 10.4672 0.368312 13.9453 0.167419 17.8718C-0.0669555 21.9187 -0.0669555 34.0484 0.167419 38.0953C0.357151 42.0218 1.27233 45.5 4.2076 48.3656C7.14286 51.2312 10.6808 52.1281 14.6875 52.325C18.817 52.5547 31.1942 52.5547 35.3237 52.325C39.3304 52.139 42.8795 51.2422 45.8036 48.3656C48.7277 45.5 49.6429 42.0218 49.8437 38.0953C50.0781 34.0484 50.0781 21.9297 49.8437 17.8828ZM44.5089 42.4375C43.6384 44.5812 41.9531 46.2328 39.7545 47.0968C36.4621 48.3765 28.6496 48.0812 25.0112 48.0812C21.3728 48.0812 13.5491 48.3656 10.2679 47.0968C8.08036 46.2437 6.3951 44.5922 5.5134 42.4375C4.2076 39.2109 4.50894 31.5547 4.50894 27.989C4.50894 24.4234 4.21876 16.7562 5.5134 13.5406C6.38394 11.3968 8.0692 9.74529 10.2679 8.88122C13.5603 7.60154 21.3728 7.89685 25.0112 7.89685C28.6496 7.89685 36.4732 7.61247 39.7545 8.88122C41.942 9.73435 43.6272 11.3859 44.5089 13.5406C45.8147 16.7672 45.5134 24.4234 45.5134 27.989C45.5134 31.5547 45.8147 39.2218 44.5089 42.4375Z" fill="white"/>
</g>
<defs>
<clipPath id="clip0">
<rect width="50" height="56" fill="white"/>
</clipPath>
</defs>
</svg>
